<svg id="Layer_1" data-name="Layer 1" xmlns="http://www.w3.org/2000/svg" xmlns:xlink="http://www.w3.org/1999/xlink" viewBox="0 0 384 384"><defs><style>.cls-1{fill:#fefefe;}.cls-2{fill:#fdfdfd;}.cls-3{fill:#fcfcfc;}.cls-4{fill:#f9f9f9;}.cls-5{fill:#3b3b3b;}.cls-6{fill:#c5c5c5;}.cls-7{fill:url(#linear-gradient);}.cls-8{fill:url(#linear-gradient-2);}</style><linearGradient id="linear-gradient" x1="311.85" y1="286.77" x2="345.07" y2="286.77" gradientUnits="userSpaceOnUse"><stop offset="0" stop-color="#15d2ae"/><stop offset="0.03" stop-color="#15d2b0"/><stop offset="1" stop-color="#11ceeb"/></linearGradient><linearGradient id="linear-gradient-2" x1="157.05" y1="73.92" x2="226.93" y2="73.92" xlink:href="#linear-gradient"/></defs><path class="cls-1" d="M383.93,192q0,94.44.06,188.88c0,2.42-.27,3.15-3,3.15q-189.06-.13-378.13,0C.47,384,0,383.37,0,381.09Q.12,192,0,3C0,.15.88,0,3.2,0Q192.08.11,381,0c2.61,0,3,.58,3,3.09Q383.87,97.53,383.93,192Z"/><path d="M49,249.56c-4-3.24-5.15-7.25-4.89-11.88.15-2.61-.16-5.26.06-7.86.88-10.08-1.65-19.76-3-29.61-2.1-15.42,2.1-29.41,11.88-41.56,1.59-2,2-3.25.4-5.42-2.38-3.34-4.37-7-6.47-10.5-2.37-4-1.56-6.42,2.82-8.12,11.49-4.45,23-8.8,34.5-13.27a7.45,7.45,0,0,1,5.77,0c11.6,4.52,23.24,8.92,34.84,13.44,4.23,1.65,5,4,2.68,7.87s-4.66,7.68-7,11.49c-.67,1.08-1.39,2-.2,3.27,7.83,8.72,11.73,19.21,13.46,30.68.74-7.27,2-14.35,5-21,5.3-11.77,14.46-16.34,27.06-13.47,2.06.47,3.59-.21,5.28-1,10-5,20.43-8.22,31.72-6.76,14.2,1.84,24.23,9.9,31.11,22.09,7.7,13.64,9.67,28.41,8.14,43.79a9.28,9.28,0,0,0,.72,5,14.55,14.55,0,0,1-5.67,18.64,6,6,0,0,0-3,4.3c-.85,4.4-2.59,8.51-4.56,13.25,5.23-2.24,10-4.31,14.71-6.3q9.47-4,19-7.85c3.6-1.46,5.2-7.45,2.34-10.18a48.9,48.9,0,0,1-14.27-25.35c-.37-1.66-1.57-2.1-2.62-2.89-5.23-3.91-7-9.92-4.45-15.93a10,10,0,0,0,.65-5.06c-.95-11.12-1-22.23,2.61-33,2.65-7.84,7.1-14,16-15.46a9.45,9.45,0,0,1,4.08-.16c4.5,1.45,8.36.07,12.41-1.83a40.39,40.39,0,0,1,20.35-4c17.34,1.32,26.86,12.15,32.47,27.39,3.26,8.82,3.84,18,3,27.31a10.72,10.72,0,0,0,.66,5.08,12.66,12.66,0,0,1-4.67,15.54,6.93,6.93,0,0,0-2.91,4.44,47.45,47.45,0,0,1-13.19,23.06c-3.45,3.3-2.27,9.59,2.08,11.18,11.71,4.27,23,9.62,34.38,14.56a20,20,0,0,1,12.14,15.11q4.08,19.77,8,39.58c.88,4.4-1,6.33-6.24,6.34H281.12c-5.33,0-5.31,0-4.25,5.22q4.62,22.72,9.21,45.45c1.12,5.52-.39,7.47-6,7.47h-184c-5.38,0-7-1.94-5.92-7.26,3.21-16,6.33-32.05,9.81-48,.67-3.07-.42-2.91-2.55-2.91q-39,.06-78,0c-1,0-2,0-3,0-3.93-.23-5.68-2.38-4.93-6.17q3.62-18.15,7.32-36.29c1.43-7,5.55-11.83,12.09-14.65C36.92,254.84,42.84,252.25,49,249.56Z"/><path d="M129.34,74a62.67,62.67,0,1,1,62.72,62.55A62.79,62.79,0,0,1,129.34,74Z"/><path class="cls-1" d="M239.36,300.62c6.75,2.89,13.52,5.72,20.23,8.7a13.22,13.22,0,0,1,7.88,9.45c3.15,14.84,6.06,29.74,9.1,44.79H99.81c1.85-9.34,3.67-18.56,5.52-27.77q1.67-8.25,3.42-16.48c.88-4.13,3.09-7.57,6.86-9.34,9.45-4.43,19.06-8.51,29.19-13-.75,8.84.31,16.87,4.08,24.36.6,1.2-.25,1.89-.6,2.74-2.81,6.66-1.4,13.51,3.76,18.1a15.56,15.56,0,0,0,17.8,1.81,15.42,15.42,0,0,0-6.19-28.7,12.08,12.08,0,0,0-2.62,0c-5.27.5-5.23.51-6.54-4.77-.85-3.44-.8-6.91-.91-10.41-.14-5,1.56-8.09,6.82-9.34,2.54-.61,3.91-.4,5.75,1.42,7.19,7.15,15.43,11.95,26.11,10,7.42-1.35,13.33-5.5,18.44-10.78,3.1-3.2,5.41.11,8,.58,2,.36,3.92,1.25,3.16,4-9.45.29-12.45,2.69-14.94,11.88-2.35,8.65-4.81,17.28-7.09,26-1.64,6.22,1.64,12.7,7.29,14.69,2.59.91,5.18.79,6.39-2.06,1.11-2.61.35-4.95-2.56-6.08-2.51-1-2.88-2.81-2.23-5.16q3.7-13.51,7.36-27c.67-2.47,2.17-3.61,4.72-2.95,3.61.94,7.21,1.95,10.81,2.95,2.2.61,3.09,2.07,2.51,4.25q-3.79,14.26-7.7,28.5c-.54,2-2,2.6-4,2.55-3.72-.08-5.8,1.55-5.62,4.35.2,3.24,2.4,4.39,5.32,4.63,5.68.45,10.92-2.58,12.55-8,3-10,5.67-20.15,8.29-30.28,1.32-5.1-.66-9.28-4.49-12.69C238.34,300.72,238.52,300.32,239.36,300.62Z"/><path class="cls-1" d="M315.8,305.53c-14.24,0-28.48,0-42.71,0a8.78,8.78,0,0,1-5.47-1.77c-6.25-4.44-13.62-6.64-20.53-9.75-7.36-3.33-14.87-6.37-22.37-9.37-1.77-.71-2.27-1.53-1.87-3.31.84-3.77,1.47-7.59,2.34-11.35a11.38,11.38,0,0,1,6.89-8.3c11.77-5.07,23.38-10.49,35.4-15,1.78-.67,2.79-.38,4.17.93,12.31,11.74,24.43,11.86,36.92.31,1.72-1.6,3-1.92,5.15-1.1,11.75,4.5,23.17,9.75,34.7,14.75a11.33,11.33,0,0,1,7.11,8.51c2.21,10.87,4.37,21.75,6.67,32.6.53,2.48-.3,2.88-2.57,2.87C345,305.48,330.41,305.53,315.8,305.53Z"/><path class="cls-1" d="M64.15,305.53c-13.11,0-26.22-.07-39.33.06-2.61,0-3.54-.48-2.94-3.27,2.05-9.49,3.95-19,5.86-28.55A10.17,10.17,0,0,1,34,266c10.4-4.48,20.65-9.28,31.25-13.29,2.12-.8,3.49-.69,5.25,1,10.66,10,22.07,10.18,32.91.34,2.06-1.87,3.72-2.29,6.25-1.19,10.15,4.41,20.37,8.68,30.57,13a10.74,10.74,0,0,1,6.72,8.36c.71,3.66,3,8.12,1.69,10.77s-6.26,3.36-9.65,4.85c-7.86,3.45-15.74,6.85-23.61,10.28-1.14.5-2.51.79-3.34,1.62-4.48,4.48-10.1,3.95-15.68,3.91C85.62,305.48,74.88,305.53,64.15,305.53Z"/><path class="cls-1" d="M164.52,195c15.32,13.5,33.16,15.82,52.33,12.26,1.47-.27,2.08-.14,2.53,1.54,2.61,9.76,4.21,11.13,14.11,12.24,1.63.18,1.9.93,1.74,2.17a5.86,5.86,0,0,1-4.5,5.39c-2.87.7-4,2.41-4.47,5.2-1.75,9.88-5.55,18.83-12.55,26.24-16.14,17.07-40.94,15.05-54.8-4.46a50.84,50.84,0,0,1-8.7-21.25c-.51-3-1.56-5-4.8-5.8a5.57,5.57,0,0,1-4.29-5.88c0-1.37.27-2.62,2.06-3.07,12-3,18.19-11.42,20.68-23.07A8.46,8.46,0,0,1,164.52,195Z"/><path class="cls-1" d="M143.31,210.09c-1.24-12.1-1.09-23.64,2.19-35a31.45,31.45,0,0,1,2.19-5.54c3.58-7,8.93-9.6,16.39-7.15,3.73,1.22,6.56.59,9.84-1.14,9.06-4.78,18.56-8,29.06-6.33,9.8,1.55,16.88,7.14,22,15.3,7.72,12.23,9.61,25.75,8.23,39.9-.08.84,0,1.87-1.24,1.89a2.88,2.88,0,0,1-2.79-1.55A14,14,0,0,1,228,204c0-6.85-1.67-8.12-8.41-6.49-10.59,2.57-21.22,3.36-31.84.38a43.16,43.16,0,0,1-22-14.77c-1.66-2-3.36-3.9-6.26-2.94s-3.13,3.63-3.29,6.15a41.7,41.7,0,0,1-3.1,14.54A16.72,16.72,0,0,1,143.31,210.09Z"/><path class="cls-1" d="M271.2,167.94a44.55,44.55,0,0,0,22.61,10.18,58.75,58.75,0,0,0,18.62-.36c2.06-.38,2.95-.07,3.48,2.33,1.2,5.38,4.69,8.16,9.83,8.84.92.13,2.48-.88,2.72.93a2.69,2.69,0,0,1-1.73,3c-5.18,1.12-5.54,5.3-6.43,9.33a36.88,36.88,0,0,1-8.8,17.05C299,233.11,279.64,232.47,268,217.87a40.57,40.57,0,0,1-8.31-18.93c-.46-2.76-1.53-4.65-4.34-5.37a4.06,4.06,0,0,1-3.2-4.09c-.09-2.18,1.9-2,3.18-2.47,6.85-2.31,11.33-7,14-13.6C270,171.72,270.49,170,271.2,167.94Z"/><path class="cls-1" d="M99.51,177.49c3.79,10.3,12,15.17,22.1,17.39,2.77.61,3.13,1.54,2.25,4-1.08,3-2.36,5.92-4.81,7.88-3.26,2.61-4.87,6.06-6.63,9.68-5,10.17-12.59,17.27-24.47,17.54-13,.29-21-7.33-26.2-18.35-1.56-3.33-3.07-6.39-6-8.78-2.44-2-3.82-4.84-5-7.79-1-2.55-.62-3.43,2.33-3.44a79.52,79.52,0,0,0,21.47-2.81,49.41,49.41,0,0,0,22.3-13.11C97.64,178.88,98.17,177.79,99.51,177.49Z"/><path class="cls-1" d="M326.78,180.29c-2.94-1.94-2.6-4.42-2.67-6.67-.17-5.75-1.83-7.07-7.42-5.79A66.17,66.17,0,0,1,300,169.64a35.86,35.86,0,0,1-27.2-12.91c-1.72-2-3.24-4.31-6.47-3.16-3,1.05-3,3.58-3.21,6.13-.41,4.47-1.05,8.92-3.39,12.91a10.46,10.46,0,0,1-6,5.15c-.42-10.15-.8-20,2.7-29.41,2.94-7.92,7.11-10.06,15.07-7.7a7.73,7.73,0,0,0,6.4-.81,46.66,46.66,0,0,1,16.11-5.7c11.38-1.59,20,2.72,26.16,12.17C326.73,156.52,328.08,167.86,326.78,180.29Z"/><path class="cls-1" d="M97.31,164.3c-8.19,13.54-20,20-34.88,21.67-3.22.35-6.46.41-9.69.72-1.92.18-2.67-.23-2.18-2.4a48.49,48.49,0,0,1,7.62-17.68c.87-1.21,1.52-3,3.51-.76,1.61,1.8,4,.85,6,.34C77.31,163.78,87,162.68,97.31,164.3Z"/><path class="cls-1" d="M169.81,276.45a42.86,42.86,0,0,0,36.74,0c2,7.49-3.63,10.16-8,13.32-6.16,4.49-13,5.52-19.55,1.12C174.12,287.64,167.91,284.82,169.81,276.45Z"/><path class="cls-1" d="M134.18,207.88a24.86,24.86,0,0,1-1.34,10.86c-2.29,6.33.48,13,6.44,16.69a5.52,5.52,0,0,1,2.81,4c1.77,9,6.35,16.7,11,24.38a.69.69,0,0,1-.11,1c-4.34-6.2-11.33-8.13-17.72-11-3-1.39-6.13-2.69-9.65-4.22,4.48-3.73,5.17-8.47,4.92-13.6-.16-3.36.15-6.75-.06-10.1a69.73,69.73,0,0,1,2.37-21.77C135.21,204.68,133.11,206.84,134.18,207.88Z"/><path class="cls-2" d="M89.68,131.45c3.5.17,6.43,1.86,9.52,3,5.49,2,10.87,4.27,16.35,6.27,1.79.65,2,1.24,1,2.86-2.51,3.85-4.9,7.79-7.18,11.78a2.57,2.57,0,0,1-3.37,1.35,81.5,81.5,0,0,0-12.52-2c-1.1-.12-2.57,0-1.81-1.76.67-1.55-1.59-4.31,1.87-4.69.86-.1,1.75,0,2.6-.15,2.58-.44,4-2,3.93-4.62s-1.71-4.36-4.32-4.14c-3.33.28-4.54-.83-4.08-4.12A3.91,3.91,0,0,0,89.68,131.45Z"/><path class="cls-1" d="M83.68,131.23c.55,1.09-.27,1.46-.32,2-.32,3.84-1,6.88-6.22,6.54-1.88-.13-3.09,2.43-2.65,4.65.5,2.56,2.36,3.64,4.86,3.82,1.55.11,3.22-.71,3.53,2.28.37,3.54-.55,4.64-4,4.62a22.49,22.49,0,0,0-7.73,1.06c-3.91,1.43-5.85,0-7.5-3.41a69.57,69.57,0,0,0-5.44-8.91c-1.21-1.77-1.15-2.55,1-3.35C67.41,137.55,75.49,134.37,83.68,131.23Z"/><path class="cls-2" d="M108,166.41c2.32.59,4.27.59,5.71-1.25,1-1.2,1.42-.28,1.91.37a44.81,44.81,0,0,1,8.36,18.94c.3,1.57-.29,1.64-1.55,1.46-8.52-1.17-15.78-9.31-15.89-17.8C106.47,166.78,106.5,165.83,108,166.41Z"/><path class="cls-2" d="M304.8,235.23a4.59,4.59,0,0,1-1.44,5.41,30.64,30.64,0,0,1-7.86,5.59c-6.36,2.81-16.36-.78-19.42-7a3.78,3.78,0,0,1-.17-3.25c.68-1.31,1.74-.08,2.55.2A36.08,36.08,0,0,0,304.8,235.23Z"/><path class="cls-2" d="M74.49,240.57a34.08,34.08,0,0,0,25.65,0c1.49,5.07-2.51,6.71-5.28,8.82-4.46,3.4-9.44,4.12-14.24.86C77.42,248,73.11,246.19,74.49,240.57Z"/><path class="cls-3" d="M121.5,219.9c0,6.43,0,12.87,0,19.31,0,2.46-1.39,3.6-3.76,3.67a10.47,10.47,0,0,1-2.24,0c-2-.35-4.41,1.1-5.88-.82-1.32-1.72.34-7.53,2.29-9.43C115.69,228.91,118.57,224.57,121.5,219.9Z"/><path class="cls-2" d="M53.15,220.35A72,72,0,0,0,64.08,234c2.41,2.27.74,5.39,1.06,8.11,0,.1-.06.29-.14.31-3.14,1-6.36.62-9.51.24-2.09-.25-2.37-2.17-2.36-4.06C53.18,232.51,53.15,226.43,53.15,220.35Z"/><path class="cls-3" d="M168.63,330.52a6.43,6.43,0,0,1-6.34,6.44,6.21,6.21,0,0,1-6.42-6.27,6.38,6.38,0,0,1,6.24-6.5A6.63,6.63,0,0,1,168.63,330.52Z"/><path class="cls-4" d="M153,264.83l.11-1c6.14,3.61,8.82,9.6,7.48,16.33a2,2,0,0,1-2,1.79c-1.42.2-1-1.08-1.22-1.8C156.11,275,155.67,269.57,153,264.83Z"/><path class="cls-5" d="M134.18,207.88c-.9-1.09.19-2.9-1.34-3.77-.19-1.21-.43-2.43,1.29-3.56A27.73,27.73,0,0,1,134.18,207.88Z"/><path class="cls-1" d="M235.66,298.87c-1.54.56-2.86.68-3.89-.38-.06-.07.2-.59.23-.58C233.23,298.21,234.44,298.54,235.66,298.87Z"/><path class="cls-6" d="M239.36,300.62l-.87.83c-.84-.37-1.86-.51-2.31-1.84A3.27,3.27,0,0,1,239.36,300.62Z"/><path class="cls-1" d="M138.34,74.07a53.67,53.67,0,1,1,54.06,53.5A53.77,53.77,0,0,1,138.34,74.07Z"/><path class="cls-7" d="M345.07,286.86c-.21,2.71-1.74,4.13-4.53,4.35-2.45.2-5.68-1.12-7.14.6-1.2,1.41-.38,4.51-.47,6.87-.12,3-1.74,4.8-4.65,4.73-2.69-.06-4.16-1.83-4.36-4.65-.16-2.44,1.18-5.65-.63-7.09-1.47-1.18-4.52-.37-6.87-.47-2.77-.13-4.51-1.47-4.57-4.35s1.73-4.3,4.42-4.56c2.45-.23,5.69.64,7.16-.62s.31-4.7.53-7.16c.25-2.8,1.87-4.43,4.6-4.38,2.55.05,4.13,1.68,4.33,4.28s-.7,5.64.53,7.23,4.65.31,7.08.62C343.17,282.59,344.9,283.86,345.07,286.86Z"/><path class="cls-8" d="M191.85,108.81H181.37c-3.39,0-5-1.79-5.07-5.1,0-3.75-.18-7.5,0-11.23.15-2.44-.75-2.93-3-2.82-3.49.18-7,.12-10.48,0-4.3-.1-5.74-1.45-5.79-5.59q-.13-10.11,0-20.22c0-4.23,1.42-5.49,5.73-5.57a97.37,97.37,0,0,1,10.11.06c3,.28,3.55-1,3.38-3.6-.22-3.35-.1-6.74-.05-10.1.06-3.92,1.57-5.55,5.36-5.59q10.29-.11,20.6,0c3.84,0,5.4,1.62,5.46,5.48s.11,7.49,0,11.23c-.07,1.93.5,2.63,2.5,2.55,3.74-.14,7.49-.1,11.24,0,4,.09,5.4,1.42,5.45,5.47.09,6.86,0,13.73,0,20.59,0,3.54-1.87,5.28-5.34,5.31-3.75,0-7.5.15-11.23,0-2.21-.11-2.74.68-2.64,2.74.15,3.36.05,6.74,0,10.11,0,4.88-1.37,6.27-6.13,6.29C198.35,108.82,195.1,108.81,191.85,108.81Z"/><path class="cls-1" d="M198.73,56.62c0,10.68,0,10.68,10.8,10.68,8.39,0,8.42,0,8.37,8.25,0,6,.85,5.08-5.12,5.16-3,0-6,0-9,0-3.33,0-5.07,1.7-5.06,5.09,0,3.62-.11,7.25,0,10.86.1,2.24-.25,3.49-2.94,3.17-3.42-.4-8,1.44-10-.74-1.7-1.89-.49-6.39-.56-9.74,0-1.25,0-2.5,0-3.74,0-3.21-1.74-4.84-4.88-4.89-3.87-.07-7.74-.13-11.6,0-2.17.08-2.86-.68-2.74-2.79a55.73,55.73,0,0,0,0-7.86c-.2-2.44.83-3,3-2.85,3.36.16,6.74.07,10.1,0,4.65-.06,6.07-1.46,6.1-6,0-3.5.19-7-.05-10.48-.17-2.47.77-3,2.95-2.8A60.63,60.63,0,0,0,196,48c2-.13,3,.38,2.74,2.61C198.58,52.61,198.73,54.62,198.73,56.62Z"/></svg>